<?xml version="1.0" encoding="UTF-8"?>
<svg xmlns="http://www.w3.org/2000/svg" xmlns:xlink="http://www.w3.org/1999/xlink" width="33px" height="32px" viewBox="0 0 33 32" version="1.1">
<g id="surface1">
<path style=" stroke:none;fill-rule:nonzero;fill:rgb(100%,50.196078%,50.196078%);fill-opacity:1;" d="M 15.527344 11.875 L 15.527344 14.90625 L 8.269531 7.636719 L 10.679688 5.21875 L 14.34375 8.890625 C 14.242188 9.15625 14.195312 9.4375 14.195312 9.71875 C 14.191406 10.632812 14.710938 11.46875 15.527344 11.875 Z M 17.75 12.3125 L 18.878906 13.441406 L 17.75 14.574219 Z M 24.652344 7.660156 L 20.292969 12.023438 L 18.828125 10.558594 C 18.960938 10.199219 19.003906 9.8125 18.957031 9.429688 C 18.804688 8.277344 17.855469 7.394531 16.695312 7.332031 C 16.375 7.316406 16.054688 7.367188 15.757812 7.480469 L 12.09375 3.796875 L 15.199219 0.695312 C 15.53125 0.359375 15.980469 0.171875 16.453125 0.171875 C 16.925781 0.171875 17.375 0.359375 17.707031 0.695312 Z M 24.652344 7.660156 "/>
<path style=" stroke:none;fill-rule:nonzero;fill:rgb(50.196078%,70.196078%,100%);fill-opacity:1;" d="M 14.085938 17.691406 L 7.492188 24.296875 L 0.949219 17.804688 C 0.179688 17 0.191406 15.730469 0.972656 14.9375 L 7.71875 8.175781 L 14.085938 14.578125 C 14.941406 15.4375 14.941406 16.832031 14.085938 17.691406 Z M 14.085938 17.691406 "/>
<path style=" stroke:none;fill-rule:nonzero;fill:rgb(100%,90.196078%,50.196078%);fill-opacity:1;" d="M 17.765625 18.476562 L 17.765625 21.253906 C 18.585938 21.742188 19.015625 22.695312 18.839844 23.636719 C 18.675781 24.558594 17.964844 25.28125 17.050781 25.457031 C 15.929688 25.703125 14.800781 25.074219 14.414062 23.992188 C 14.027344 22.910156 14.503906 21.707031 15.527344 21.183594 L 15.527344 18.117188 C 15.519531 18.027344 15.460938 17.953125 15.378906 17.917969 C 15.296875 17.882812 15.203125 17.898438 15.132812 17.953125 L 8.226562 24.875 L 15.335938 32 C 16.023438 32.691406 17.140625 32.691406 17.832031 32 L 24.539062 25.289062 Z M 17.765625 18.476562 "/>
<path style=" stroke:none;fill-rule:nonzero;fill:rgb(55.294118%,82.745098%,37.254902%);fill-opacity:1;" d="M 31.871094 18.152344 L 25.476562 24.566406 L 18.589844 17.664062 C 17.785156 16.855469 17.785156 15.546875 18.589844 14.742188 L 19.382812 13.9375 L 21.136719 15.695312 C 20.75 16.75 21.148438 17.933594 22.09375 18.542969 C 23.039062 19.148438 24.277344 19.011719 25.070312 18.21875 C 25.867188 17.421875 26 16.179688 25.394531 15.230469 C 24.789062 14.285156 23.609375 13.886719 22.554688 14.273438 L 20.808594 12.527344 L 25.277344 8.050781 L 31.871094 14.664062 C 32.335938 15.125 32.597656 15.753906 32.597656 16.410156 C 32.597656 17.0625 32.335938 17.691406 31.871094 18.152344 Z M 31.871094 18.152344 "/>
</g>
</svg>
