<?xml version="1.0" encoding="UTF-8"?>
<svg xmlns="http://www.w3.org/2000/svg" xmlns:xlink="http://www.w3.org/1999/xlink" width="42px" height="32px" viewBox="0 0 42 32" version="1.1">
<g id="surface1">
<path style=" stroke:none;fill-rule:evenodd;fill:rgb(87.843137%,91.764706%,96.078431%);fill-opacity:1;" d="M 24.613281 0.0078125 C 29.328125 0.00390625 34.042969 -0.0078125 38.757812 0.0117188 C 41.558594 0.0234375 42.351562 0.964844 41.746094 3.753906 C 39.976562 11.921875 38.167969 20.082031 36.335938 28.238281 C 35.753906 30.816406 34.421875 31.871094 31.730469 31.878906 C 22.304688 31.90625 12.875 31.910156 3.445312 31.878906 C 0.363281 31.867188 -0.449219 30.816406 0.214844 27.871094 C 2.019531 19.878906 3.828125 11.886719 5.65625 3.898438 C 6.351562 0.855469 7.394531 0.0195312 10.46875 0.0117188 C 15.183594 0 19.898438 0.0078125 24.613281 0.0078125 Z M 24.613281 0.0078125 "/>
<path style=" stroke:none;fill-rule:evenodd;fill:rgb(14.901961%,44.313725%,74.509804%);fill-opacity:1;" d="M 17.488281 30.929688 C 12.773438 30.925781 8.058594 30.949219 3.34375 30.917969 C 0.953125 30.902344 0.519531 30.332031 1.058594 27.976562 C 2.882812 19.984375 4.765625 12.007812 6.550781 4.007812 C 7.027344 1.859375 8.058594 0.914062 10.339844 0.933594 C 19.769531 1.023438 29.199219 0.960938 38.632812 0.972656 C 40.996094 0.972656 41.394531 1.484375 40.863281 3.902344 C 39.136719 11.746094 37.402344 19.589844 35.640625 27.429688 C 34.976562 30.363281 34.21875 30.921875 31.15625 30.929688 C 26.601562 30.9375 22.042969 30.929688 17.488281 30.929688 Z M 17.488281 30.929688 "/>
<path style=" stroke:none;fill-rule:evenodd;fill:rgb(99.215686%,99.215686%,99.607843%);fill-opacity:1;" d="M 21.5 15.265625 C 21.183594 14.894531 20.839844 14.464844 20.472656 14.050781 C 18.386719 11.71875 16.320312 9.367188 14.199219 7.070312 C 13.230469 6.019531 12.917969 4.996094 14.085938 3.960938 C 15.238281 2.933594 16.371094 3.023438 17.425781 4.207031 C 20.367188 7.492188 23.308594 10.78125 26.300781 14.023438 C 27.417969 15.234375 27.15625 16.058594 25.925781 16.953125 C 21.203125 20.398438 16.507812 23.878906 11.820312 27.367188 C 10.765625 28.152344 9.757812 28.347656 8.90625 27.191406 C 7.96875 25.914062 8.835938 25.152344 9.8125 24.4375 C 13.296875 21.878906 16.777344 19.3125 20.238281 16.722656 C 20.722656 16.363281 21.414062 16.152344 21.5 15.265625 Z M 21.5 15.265625 "/>
<path style=" stroke:none;fill-rule:evenodd;fill:rgb(98.823529%,99.215686%,99.215686%);fill-opacity:1;" d="M 22.996094 27.628906 C 21.726562 27.628906 20.453125 27.671875 19.1875 27.613281 C 18.175781 27.566406 17.570312 27 17.582031 25.925781 C 17.59375 24.910156 18.101562 24.148438 19.109375 24.121094 C 21.886719 24.046875 24.664062 24.0625 27.4375 24.117188 C 28.320312 24.136719 28.972656 24.714844 28.964844 25.640625 C 28.960938 26.703125 28.40625 27.527344 27.277344 27.59375 C 25.855469 27.679688 24.421875 27.617188 22.996094 27.617188 C 22.996094 27.617188 22.996094 27.625 22.996094 27.628906 Z M 22.996094 27.628906 "/>
</g>
</svg>
